<svg width="861" height="952" viewBox="0 0 861 952" fill="none" xmlns="http://www.w3.org/2000/svg">
<path fill-rule="evenodd" clip-rule="evenodd" d="M498.097 1.61199C493.475 2.38599 484.925 4.61499 479.097 6.56299C458.48 13.457 446.186 20.729 435.125 32.573C429.274 38.838 426.728 42.82 419.49 57.02C401.836 91.656 394.913 98.858 368.75 109.806C365.351 111.229 364.955 115.37 368.059 117.031C370.739 118.466 375.038 117.486 382.5 113.739C401.957 103.969 411.518 93.18 425.581 65.126C435.654 45.03 442.088 36.283 451.563 29.801C459.792 24.172 477.624 16.018 489.789 12.322C497.644 9.93599 500.121 9.66999 515 9.61499C524.925 9.57799 533.891 10.066 537.5 10.841C551.818 13.913 565.315 19.629 576.174 27.218C582.855 31.887 586 31.779 586 26.882C586 22.588 580.498 17.898 568.5 11.966C546.799 1.23599 522.055 -2.40301 498.097 1.61199ZM603.75 31.08C601.673 32.29 601.459 35.306 603.34 36.867C604.076 37.478 608.184 39.123 612.468 40.521C626.853 45.217 635.718 53.249 643.899 69C649.127 79.065 652.252 89.52 655.407 107.5C659.246 129.376 660.679 135.03 666.137 149.825C672.3 166.528 673.348 171.426 672.797 180.937C672.019 194.391 665.505 204.787 654.018 210.91C648.765 213.709 648 214.489 648 217.04C648 222.539 654.468 222.034 663.687 215.815C669.352 211.994 674.264 205.78 678.212 197.443C681.364 190.787 681.5 190.004 681.488 178.5L681.476 166.5L675.323 148.5C670.815 135.314 667.947 124.449 664.599 107.871C657.408 72.264 652.178 60.038 638.083 45.888C630.457 38.233 623.852 34.074 615.099 31.418C609.689 29.775 606.17 29.671 603.75 31.08ZM601.809 119.047C600.828 119.619 599.834 121.927 599.441 124.544C598.391 131.547 592.386 139.802 582.133 148.335C565.741 161.978 553.011 167.863 535.211 170.028C525.076 171.26 512.882 170.26 503 167.387C494.31 164.86 491.543 164.641 490.112 166.365C484.759 172.815 503.433 179.983 525.5 179.948C544.064 179.918 556.208 176.854 569.572 168.829C592.341 155.154 607.266 138.69 608.739 125.622C609.159 121.895 608.895 121.04 606.892 119.637C604.194 117.747 604.064 117.732 601.809 119.047ZM618.992 154.015C618.399 155.124 617.525 160.504 617.05 165.972C615.973 178.362 613.193 184.849 605.503 192.912C599.618 199.082 592.662 202.915 583.5 205.04C576.378 206.691 573.546 208.251 573.189 210.72C572.982 212.15 573.747 213.443 575.464 214.568C577.777 216.084 578.707 216.124 584.275 214.945C593.676 212.954 605.566 206.58 612.024 200.069C617.877 194.168 622.898 185.037 624.924 176.609C626.187 171.355 626.523 156.526 625.443 153.712C624.534 151.344 620.315 151.543 618.992 154.015ZM415.904 159.376C407.619 161.605 400.823 169.146 397.062 180.283C391.761 195.98 397.432 216.446 411.81 233.508C414.939 237.222 417.934 240.855 418.464 241.581C420.466 244.324 404.315 265.203 389.497 279.028C378.454 289.332 375.489 291.332 373.13 290.07C369.155 287.942 363.629 289.148 337.288 297.89C286.584 314.716 272.622 319.937 259.127 327.118C236.418 339.201 221.773 352.886 208.257 374.654C198.367 390.581 197.306 392.693 186.469 418C175.575 443.441 166.158 468.548 150.837 513C138.196 549.677 133 566.61 133 571.126C133 575.684 135.04 578.817 140.139 582.089C144.83 585.099 144.921 585.252 143.589 587.841C140.766 593.328 122.612 653.03 119.519 667C113.186 695.6 112.857 712.864 118.435 723.872C121.747 730.407 129.168 737.471 136.452 741.021C139.778 742.643 149.7 745.827 158.5 748.099C167.3 750.37 175.175 752.481 176 752.79C177.89 753.498 182.871 752.757 117 761.569C24.8659 773.895 2.58988 777.095 1.26588 778.195C-0.499118 779.659 -0.315116 783.494 1.59588 785.08C3.24288 786.447 21.2639 784.307 104 772.921C119.675 770.763 149.375 766.712 170 763.917L207.5 758.836L234 763.066C248.575 765.393 260.86 767.613 261.301 767.999C261.742 768.386 257.97 769.267 252.92 769.957C240.749 771.62 237.359 773.089 236.483 777.077C236.106 778.793 236.181 780.53 236.649 780.936C237.748 781.89 254.323 794.688 279.5 814.022C290.5 822.47 330.665 853.368 368.755 882.685C406.845 912.002 438.795 936.467 439.755 937.051C441.119 937.881 463.64 931.756 542.799 909.03C631.473 883.572 646.305 879.585 661.799 877.036C671.535 875.434 719.775 867.737 769 859.931C818.225 852.125 859.063 845.292 859.75 844.747C860.438 844.201 861 842.522 861 841.014C861 838.494 859.445 837.401 841.75 827.485C831.163 821.552 817.55 813.894 811.5 810.467C805.45 807.041 773.05 788.837 739.5 770.015C705.95 751.192 675.047 733.792 670.827 731.346L663.154 726.9L676.383 713.7C683.659 706.44 690.936 698.793 692.556 696.706C696.07 692.178 687.866 693.675 767.365 683.052C800.292 678.653 827.877 674.517 828.667 673.862C829.499 673.171 829.976 671.374 829.801 669.585C829.308 664.536 836.026 663.975 741.758 676.945C721.55 679.725 704.362 682 703.563 682C702.417 682 702.643 680.796 704.63 676.302C707.749 669.25 708.657 659.596 707.063 650.442C705.348 640.592 696.496 615.003 679.582 571C676.516 563.025 674.006 556.168 674.004 555.761C674.002 555.355 677.712 553.169 682.25 550.903C698.635 542.722 699.922 540.429 695.448 527.406C693.954 523.058 689.478 511.85 685.502 502.5C681.525 493.15 675.484 478.075 672.078 469C668.673 459.925 665.288 451.15 664.557 449.5C663.826 447.85 660.44 438.625 657.034 429C640.37 381.918 631.86 358.644 629.89 354.763C622.254 339.718 608.864 326.773 590.946 317.111C583.882 313.302 583.249 313.137 581.196 314.575C576.921 317.57 578.367 319.448 591.771 328.311C615.694 344.129 621.439 353.059 636.932 398.511C652.574 444.4 673.67 499.579 685.534 525.635L690.026 535.5L687.194 537.863C681.364 542.727 628.498 568.96 611 575.672C604.403 578.203 587.535 583.62 584.481 584.189C583.238 584.42 582.356 583.088 581.045 579C577.638 568.378 568.907 547.152 566.892 544.589C565.771 543.165 564.192 542 563.382 542C562.275 542 562.045 541.193 562.456 538.75C562.756 536.962 564.14 528.612 565.53 520.194C569.305 497.336 575.349 468.454 582.094 441.043C585.404 427.591 587.861 415.583 587.554 414.359C586.86 411.592 583.271 410.294 581.441 412.147C579.791 413.818 567.237 464.912 562.593 488.859C560.711 498.561 557.54 516.85 555.547 529.5C553.553 542.15 549.246 566 545.974 582.5C540.498 610.123 529.007 677.078 527.525 690C527.178 693.025 526.669 696.682 526.395 698.126C525.494 702.865 531.718 706.264 533.884 702.216C534.409 701.235 536.666 687.62 538.9 671.961C543.324 640.939 546.223 624.475 553.883 586.866C556.643 573.317 559.21 559.901 559.587 557.053C559.965 554.205 560.594 552.24 560.984 552.687C561.374 553.134 564.703 561.15 568.382 570.5C572.061 579.85 575.632 588.625 576.317 590C577.998 593.374 582.955 593.712 591.597 591.043C595.286 589.903 598.431 589.097 598.585 589.252C598.739 589.406 600.656 594.475 602.845 600.516C605.034 606.557 609.977 619.76 613.829 629.856L620.832 648.213L610.666 661.952C605.075 669.508 597.012 680.702 592.75 686.826C587.663 694.136 584.226 698.129 582.75 698.447C581.512 698.714 559.8 701.652 534.5 704.977C509.2 708.301 487.361 711.256 485.968 711.542C483.975 711.952 481.952 710.873 476.468 706.478C472.636 703.406 466.256 698.825 462.291 696.298L455.082 691.703L449.144 679.602C445.878 672.946 442.025 664.678 440.581 661.229C439.138 657.779 435.663 650.129 432.86 644.229C430.057 638.328 426.048 629.613 423.951 624.863C418.972 613.582 413.24 602.196 410.806 598.75C408.387 595.324 403.999 595.094 399.018 598.13C390.075 603.582 390.431 605.762 406.513 644C407.785 647.025 411.168 654.45 414.031 660.5C421.721 676.754 425.079 684.26 424.773 684.514C424.623 684.639 422.391 685.661 419.813 686.786C417.234 687.912 410.709 692.155 405.313 696.216C392.471 705.879 380.311 714.32 376.231 716.402C372.999 718.052 372.728 717.998 351.731 711.487C340.054 707.867 321.95 701.966 311.5 698.376C301.05 694.785 282.6 688.568 270.5 684.561C250.993 678.101 219.212 666.545 218.217 665.55C218.014 665.348 219.414 660.978 221.327 655.841C223.241 650.703 226.942 639.975 229.553 632C232.163 624.025 234.377 617.392 234.472 617.261C234.567 617.129 241.57 618.634 250.033 620.605C267.191 624.601 271.254 624.569 276.726 620.396C278.537 619.014 280.884 616.187 281.942 614.113C286.938 604.321 300.574 553.545 303.86 532.5C307.563 508.782 309.981 457.889 308.088 443.5C306.803 433.725 297.178 393.755 294.657 387.723C292.972 383.688 290.233 382.809 287.943 385.569C286.853 386.883 287.761 391.808 293.52 415.819L300.399 444.5L300.281 461.5C300.045 495.832 296.053 531.275 288.868 562.852C284.832 580.59 275.347 609.92 272.731 612.75C269.821 615.898 266.529 615.67 246.602 610.942C204.429 600.936 161.832 586.148 147.591 576.57C141.939 572.769 141.52 572.228 141.777 569.064C142.072 565.436 159.393 512.777 170.39 482.074C187.209 435.116 205.423 394.276 218.13 375.026C225.353 364.085 237.846 350.639 246.5 344.491C260.04 334.873 278.964 326.725 319.841 312.912C345.619 304.202 356.135 300.556 364.5 297.429C365.6 297.018 366.201 297.014 365.836 297.421C364.808 298.567 368.699 311.457 372.147 318.329C383.632 341.219 409.074 363.108 430.46 368.498C442.246 371.468 453.805 369.821 461.794 364.034C466.678 360.497 475.498 348.979 479.945 340.332L483.117 334.164L488.414 336.589C499.676 341.745 509.448 341.949 526.964 337.394C537.874 334.557 546.782 330.464 559.5 322.443C578.035 310.753 585.634 302.12 603.63 272.317C617.979 248.553 620 244.831 620 242.162C620 239.556 617.531 237.697 615.096 238.47C613.135 239.092 605.183 251.09 595.525 268C586.563 283.69 579.644 293.449 572.047 301.115C563.341 309.899 555.571 315.212 541.5 322.002C526.82 329.086 518.33 331.445 507.408 331.475C498.772 331.499 497.92 331.3 490.408 327.513C476.023 320.261 460.796 302.809 449.957 281.155C445.475 272.198 443.964 270.559 441.048 271.485C433.586 273.853 448.701 302.78 467.063 321.272L475.773 330.043L470.872 338.112C460.041 355.945 457.865 358.056 448.258 360.05C433.325 363.15 415.139 355.092 397.417 337.522C388.814 328.993 383.034 320.593 378.536 310.084L375.15 302.173L384.353 295.164C399.95 283.285 414.947 266.677 425.392 249.716C430.907 240.758 431.045 241.487 421.954 231.449C402.945 210.459 398.76 187.643 411.305 173.391C413.514 170.882 416.479 168.388 417.895 167.85C424.09 165.494 436.123 172.851 439.377 180.984C441.173 185.474 443.601 186.204 446.41 183.099C447.857 181.501 447.962 180.571 447.068 177.253C445.275 170.593 440.81 165.514 433.811 162.172C425.994 158.441 421.808 157.787 415.904 159.376ZM469.537 174.839C464.719 182.152 461.305 185.283 454.201 188.901C448.972 191.564 448.06 193.505 450.768 196.212C454.966 200.41 465.566 195.318 473.457 185.312C480.719 176.104 481.856 169.031 476.21 168.189C474.59 167.947 473.099 169.433 469.537 174.839ZM638.203 182.692C637.691 183.686 637.013 187.14 636.696 190.367C635.943 198.045 631.889 206.183 626.788 210.259C618.811 216.633 617.836 217.826 618.93 219.868C622.315 226.195 635.078 218.771 640.951 207.06C644.964 199.057 647.674 187.823 646.441 184.297C645.219 180.801 639.726 179.73 638.203 182.692ZM488 193.236C485.55 194.121 484.4 195.21 484.165 196.865C483.575 201.034 485.206 201.491 501.3 201.658C512.343 201.774 518.004 202.278 522 203.504C530.284 206.045 532.87 206.352 534.509 204.992C538.811 201.422 534.158 196.892 523.704 194.471C514.242 192.28 492.711 191.536 488 193.236ZM504.11 227.396C499.265 230.081 497.441 237.279 500.829 240.345C505.497 244.57 515 239.969 515 233.484C515 231.068 514.272 229.572 512.365 228.073C509.333 225.688 507.468 225.535 504.11 227.396ZM577.923 244.923C574.545 248.301 574.185 251.772 576.869 255.087C578.612 257.239 579.014 257.312 582.815 256.173C589.794 254.083 593.225 247.324 589.171 243.655C586.238 241 581.288 241.558 577.923 244.923ZM543.892 257.338C543.091 259.096 543.22 261.003 544.413 265.02C546.876 273.314 546.62 274.475 541.986 276.005C537.313 277.547 535.723 279.113 536.575 281.335C538.61 286.638 554.034 282.698 555.595 276.477C556.34 273.511 553.511 260.6 551.383 257.25C549.449 254.205 545.297 254.253 543.892 257.338ZM509.565 301.928C505.951 305.922 509.241 309.145 518.988 311.158C524.779 312.354 525.299 312.312 526.602 310.53C529.863 306.07 527.304 302.814 519.201 301.113C512.157 299.634 511.599 299.681 509.565 301.928ZM131 450.106C112.642 451.133 104.993 452.452 98.2519 455.753C90.9099 459.348 83.3239 467.083 79.8409 474.525C76.2879 482.119 72.3919 499.005 70.8799 513.367C67.7349 543.228 72.5289 650.653 80.0979 719.96C83.4799 750.926 85.4059 758 90.4559 758C93.4989 758 94.4219 755.336 93.1249 750.299C92.1809 746.635 91.3739 740.63 87.0349 705C85.0319 688.552 82.2949 657.11 79.8099 622C79.0189 610.836 78.5049 585.656 78.5139 558.5C78.5249 519.661 78.7729 512.131 80.3199 503.5C85.4869 474.676 92.8319 464.232 110.542 460.527C114.265 459.748 128.091 458.549 141.265 457.862C164.653 456.644 165.243 456.561 166.256 454.337C168.805 448.743 164.526 448.229 131 450.106ZM674.305 580.75C678.456 592.163 684.42 608.25 687.558 616.5C694.711 635.306 699.009 652.009 698.973 660.857C698.906 677.227 683.59 698.314 654 722.775C647.675 728.003 640.138 734.565 637.25 737.356L632 742.432V754.085C632 770.799 630.03 780.537 623.902 794.122C616.326 810.915 611.301 820.622 606.384 827.958C599.024 838.938 596.855 840.954 594.5 839C593.675 838.315 593.001 837.023 593.002 836.128C593.004 835.232 597.1 825.95 602.104 815.5C611.865 795.121 613.138 791.189 610.646 789.121C607.33 786.369 605.719 788.294 599.028 803.002C590.831 821.018 588.79 824.963 583.763 832.5C578.232 840.793 573.051 846 570.332 846C567.334 846 565.751 843.026 567.315 840.331C572.695 831.061 592.605 789.213 594.378 783.448C594.731 782.3 594.394 780.554 593.614 779.487C592.461 777.909 591.811 777.768 589.86 778.668C588.126 779.467 585.803 783.572 581.109 794.128C577.594 802.033 571.606 814.532 567.801 821.904C557.11 842.622 553.218 847.387 550.276 843.363C546.705 838.48 549.386 829.791 567.096 788.852C570.343 781.345 573 774.274 573 773.137C573 772 572.097 770.587 570.993 769.996C567.895 768.338 565.068 771.953 560.041 784C543.52 823.585 538.631 834 536.568 834C535.331 834 535 832.82 535 828.407C535 817.369 539.906 798.295 550.41 768.5C555.249 754.772 555.737 752.137 553.8 750.2C551.408 747.808 548.297 749.17 537.062 757.526C520.61 769.762 516.538 772.185 511.473 772.756C507.276 773.229 504 772.008 504 769.972C504 769.542 507.038 766.927 510.75 764.163C517.877 758.855 523.78 753.017 531.065 744.071C538.836 734.528 546.446 730.722 565.176 727.014C575.341 725.001 581.261 718.873 600.93 690C604.115 685.325 611.736 674.829 617.865 666.675C623.995 658.522 629.497 650.94 630.093 649.826C630.965 648.197 630.594 646.599 628.196 641.651C626.557 638.268 623.808 631.675 622.088 627C620.368 622.325 616.324 611.305 613.103 602.51L607.245 586.521L614.373 583.893C620.755 581.539 653.885 565.969 661.5 561.745C663.15 560.829 665.008 560.062 665.629 560.04C666.249 560.018 670.154 569.337 674.305 580.75ZM161.65 593.084C172.251 597.976 193.474 605.326 212 610.521C219.425 612.604 225.827 614.587 226.226 614.929C226.843 615.459 211.892 661.442 210.722 662.611C210.497 662.837 208.401 662.347 206.066 661.523C200.689 659.626 197.729 660.849 198.19 664.778C198.467 667.142 199.665 667.88 209.5 671.746C233.837 681.312 333.194 715.035 357.568 722.001C366.856 724.656 373.569 726.073 375.068 725.695C379.045 724.693 390.648 717.28 404.5 706.892C418.259 696.573 428.469 691.002 433.624 691.001C441.109 690.999 453.021 698.022 472.993 714.212C481.715 721.283 484.639 724.248 485.124 726.514C485.476 728.156 485.791 737.375 485.825 747C485.897 767.166 485.047 771.322 480.75 771.816C479.237 771.99 477.973 771.765 477.941 771.316C477.908 770.867 477.719 764.597 477.52 757.383C476.985 737.92 476.903 737.748 462.055 724.837C451.351 715.531 449.059 713.964 446.508 714.211C441.446 714.7 442.112 717.553 448.639 723.34C469.088 741.47 468.937 741.2 468.976 759.639C468.996 768.985 468.704 771.144 467.162 773.048C464.541 776.286 463.363 774.935 462.731 767.97C461.858 758.345 458.421 752.887 444.461 738.961C432.672 727.2 431.985 726.686 429.551 727.795C428.148 728.434 427 729.771 427 730.765C427 731.76 432.404 738.022 439.01 744.682C452.296 758.077 455.232 762.92 455.358 771.646C455.413 775.419 454.915 777.436 453.562 778.932C451.425 781.293 450 781.599 450 779.696C450 775.989 443.309 768.485 431.978 759.483C422.016 751.568 419.39 749.936 417.412 750.433C414.143 751.253 414.29 754.428 417.75 757.683C419.263 759.106 424.621 763.6 429.658 767.67C439.484 775.61 442 778.585 442 782.265C442 788.133 435.184 788.628 425 783.5C421.177 781.575 416.91 780 415.518 780C414.125 780 406.801 781.389 399.243 783.087C381.045 787.175 377.224 786.855 363.678 780.105C354.291 775.428 352.295 774.844 338 772.598C329.475 771.259 310.8 768.089 296.5 765.555C282.2 763.021 258.35 758.921 243.5 756.444C204.618 749.959 162.725 741.545 151.647 737.996C121.957 728.486 117.133 713.795 128.475 667.428C134.233 643.888 139.457 625.745 145.874 607C151.401 590.855 152.085 589 152.507 589C152.669 589 156.783 590.838 161.65 593.084ZM409.877 613.27C412.284 618.346 418.256 631.5 423.147 642.5C428.038 653.5 434.533 667.621 437.579 673.88C441.402 681.734 442.61 685.064 441.477 684.63C440.575 684.283 438.529 684 436.931 684C434.346 684 433.651 683.255 430.629 677.25C425.435 666.926 411.829 636.119 405.676 620.747L400.17 606.994L402.307 605.497C403.483 604.674 404.682 604.009 404.973 604.02C405.263 604.031 407.47 608.193 409.877 613.27ZM573.5 710.081C571.666 710.948 493.782 725.168 493.411 724.703C493.322 724.591 492.963 723.57 492.615 722.433C492.006 720.447 492.794 720.259 512.741 717.615C524.158 716.101 542.275 713.585 553 712.022C574.724 708.858 576.428 708.697 573.5 710.081ZM567 717.919C566.175 718.391 563.025 719.106 560 719.509C552.821 720.464 541.539 724.548 536.5 728.014C534.3 729.528 527.647 735.969 521.715 742.329C509.293 755.646 498.296 764.305 495.672 762.836C494.219 762.023 494 759.826 494 746.068V730.236L503.25 728.573C508.337 727.658 524.425 724.731 539 722.068C553.575 719.405 566.175 717.189 567 717.143C568.333 717.07 568.333 717.156 567 717.919ZM700.774 759.118C725.374 772.933 750.45 787.032 756.5 790.45C762.55 793.867 775.15 800.964 784.5 806.221C830.323 831.984 842.379 838.98 841 839.003C840.175 839.018 795.882 845.983 742.572 854.481L645.644 869.933L635.572 862.777C625.885 855.894 607.875 842.99 607.149 842.411C606.956 842.258 609.082 838.654 611.873 834.402C620.023 821.987 634.808 791.581 637.111 782.5C638.817 775.77 640.053 760.522 640.006 746.796C640 745.006 652.579 734.155 654.774 734.057C655.475 734.026 676.175 745.303 700.774 759.118ZM540.569 771.75C538.796 776.563 536.752 782.661 536.028 785.302C535.223 788.237 534.248 789.925 533.519 789.645C532.863 789.394 529.367 787.042 525.752 784.42L519.177 779.652L527.839 773.884C532.602 770.711 537.85 766.981 539.5 765.594C541.15 764.207 542.791 763.056 543.147 763.036C543.502 763.016 542.342 766.938 540.569 771.75ZM298.5 774.548C302.9 775.399 317.413 777.854 330.751 780.004C354.192 783.782 355.229 784.046 361.751 787.917C370.238 792.952 379.353 795.395 386.341 794.507C389.179 794.147 396.946 792.514 403.602 790.879L415.703 787.906L422.602 791.328C426.396 793.21 431.075 795.02 433 795.35C437.527 796.126 443.617 794.691 446.347 792.207C447.531 791.128 450.226 789.693 452.336 789.017C454.445 788.341 457.595 786.542 459.336 785.018C461.492 783.131 463.934 782.112 467 781.819C472.229 781.321 473.315 782.308 478.126 791.935C482.084 799.857 493.983 811.254 497.831 810.809C500.49 810.501 500.499 810.471 500.341 802.5C500.18 794.444 499.432 789.901 496.679 780.25C495.855 777.362 495.395 775 495.657 775C495.919 775 497.566 776.048 499.317 777.328C501.068 778.608 508.8 784.098 516.5 789.527C524.2 794.956 530.686 799.532 530.914 799.696C531.142 799.861 530.467 803.709 529.414 808.247C528.184 813.549 527.5 820.195 527.5 826.835C527.5 837.025 527.541 837.205 530.433 839.694C532.87 841.792 534.096 842.137 537.683 841.732C541.377 841.316 542 841.51 542 843.076C542 846.296 544.307 850.107 547.145 851.575C550.74 853.434 553.15 853.373 557.469 851.313C560.746 849.751 561.098 849.747 562.253 851.268C564.026 853.602 567.954 854.824 571.828 854.246C574.061 853.913 577.116 851.936 581.114 848.234L587.071 842.718L589.319 844.83C590.555 845.991 593.244 847.292 595.294 847.721C599.338 848.566 633.426 872.03 632.2 873.125C631.199 874.02 445.825 927 443.696 927C442.172 927 422.595 912.253 363.47 866.568C356.303 861.031 327.617 838.95 299.723 817.5C271.828 796.05 249.498 778.335 250.101 778.134C252.572 777.308 281.832 773.215 286 773.112C288.475 773.05 294.1 773.697 298.5 774.548ZM490.678 788.809C493.125 798.142 492.404 798.832 487.249 792.093C482.08 785.334 481.59 779.519 486.246 780.18C488.163 780.452 488.826 781.742 490.678 788.809ZM181 800.629C163.54 804.357 144.605 808.639 133.649 811.337C122.292 814.134 116.714 817.516 113.589 823.5C110.815 828.812 110.811 837.275 113.581 842.033C115.462 845.264 141.938 868.434 155.5 878.718C158.8 881.22 162.4 884.249 163.5 885.448C164.6 886.647 169.1 890.493 173.5 893.995C181.304 900.206 199.531 915.982 211.422 926.817C220.89 935.444 235.119 946.552 240 949.126C244.05 951.263 245.7 951.491 256.5 951.409C267.098 951.328 270.077 950.883 282 947.597C289.425 945.551 303.852 941.708 314.06 939.056C334.568 933.729 339.231 931.778 343.739 926.645C349.919 919.606 350.225 913.35 344.906 902.813C341.634 896.332 336.819 892.026 314.167 875.328C306.834 869.923 295.954 861.9 289.988 857.5C284.022 853.1 267.746 840.902 253.82 830.394C221.846 806.266 217.474 803.327 209.224 800.415C200.843 797.457 195.674 797.496 181 800.629ZM205.161 805.348C211.502 807.256 228.528 818.962 259.81 842.921C286.127 863.077 322.172 890.109 327.654 893.801C334.777 898.597 340 904.478 340 907.702C340 911.105 336.606 912.358 310.885 918.449C298.023 921.495 286.415 924.464 285.088 925.046C280.367 927.118 259.931 931 253.744 931C248.268 931 246.786 930.56 242.282 927.594C235.747 923.29 221.707 911.971 197.5 891.489C162.67 862.02 140.546 843.523 136 840.073C126.711 833.023 123 828.81 123 825.315C123 822.991 123.677 821.603 125.341 820.512C126.628 819.669 137.765 816.696 150.091 813.906C199.055 802.822 197.546 803.056 205.161 805.348ZM132.589 843.526C154.712 863.675 181.934 887.394 196.5 899.213C200.35 902.337 209.8 910.116 217.5 916.5C232.887 929.257 239.741 934.097 244.899 935.847C249.551 937.425 260.471 937.295 268.685 935.563C280.238 933.128 305.107 926.91 313 924.483C317.125 923.214 324.488 920.982 329.363 919.521C334.683 917.927 339.18 915.911 340.613 914.478L343 912.091V914.823C343 919.7 338.319 924.815 331.5 927.391C329.3 928.222 315.575 931.872 301 935.502C286.425 939.132 271.64 942.979 268.145 944.051C259.365 946.743 250.551 946.622 244.919 943.731C238.1 940.23 227.088 931.648 208.5 915.348C188.35 897.679 163.868 876.891 144.5 861.005C136.8 854.689 127.912 847.001 124.75 843.921C119.289 838.602 119 838.073 119.004 833.41L119.007 828.5L120.843 831.5C121.852 833.15 127.138 838.562 132.589 843.526Z" fill="black"/>
</svg>
