<svg width="974" height="1207" viewBox="0 0 974 1207" fill="none" xmlns="http://www.w3.org/2000/svg">
<path d="M145.206 1.93066C150.357 -1.81701 164.029 4.21669 169.946 6.34375C262.365 39.5808 379.611 108.385 462.771 162.039C543.153 213.899 683.127 307.995 690.014 412.265C691.663 437.211 683.778 461.361 684.125 484.585C684.241 492.442 688.552 505.233 697.956 505.421C705.74 505.58 745.669 473.385 757.996 467.206C803.569 444.358 875.271 445.921 909.227 488.202C912.178 491.863 918.151 504.679 918.948 505.262V505.204C920.959 506.637 955.161 512.772 962.8 515.594C966.084 516.809 975.3 519.558 973.55 523.566C972.825 525.231 945.873 533.334 940.78 535.663C911.845 548.874 898.608 578.667 879.481 603.136C847.161 644.49 811.729 682.791 766.04 709.618C721.263 873.358 571.48 975.472 435.268 1060.32C364.941 1104.12 288.421 1150.73 215.013 1188.76C205.58 1193.63 193.716 1200.46 184.037 1204.08C151.312 1216.32 182.865 1182.68 190.157 1174.01C256.477 1095.17 340.896 1029.21 420.931 964.938C418.211 963.65 413.769 967.022 411.28 968.31C381.839 983.662 348.303 1008.41 318.731 1020.43C299.374 1028.3 308.691 1014.24 315.36 1005.5C333.025 982.345 361.122 955.547 382.562 935.246C412.93 906.48 446.538 881.013 475.922 851.379C456 858.151 436.642 873.329 416.995 879.971C413.48 881.157 408.951 883.705 406.578 879.407C405.117 874.343 427.932 837.227 431.824 829.703C443.268 807.593 474.055 750.322 473.129 727.647C472.289 707.115 443.399 697.261 427.094 691.126C352.571 663.098 297.926 674.645 222.478 688.319C158.922 699.837 92.6602 718.098 29.1621 726.49C24.1564 727.156 -7.57074 732.886 2.85938 720.442C5.44907 717.346 28.67 706.595 34.1533 703.99C85.7591 679.45 144.512 661.174 193.34 631.685C206.52 623.726 231.317 610.399 226.109 592.616C221.885 578.204 172.942 538.413 159.11 526.504C117.227 490.445 71.9863 457.367 31.752 419.471C25.8058 413.871 7.63383 397.071 5.44922 390.748C2.77299 382.993 16.5882 390.299 19.2656 391.442C69.9312 413.031 121.465 442.275 171.581 466.28C236.497 497.361 320.236 542.956 388.002 562.374C417.01 570.68 461.686 574.485 466.851 534.853C469.787 512.265 444.136 459.248 433.748 437.037C418.948 405.363 400.025 375.424 387.641 342.795C387.772 340.799 395.886 342.592 397.521 343.041C411.931 346.977 428.902 357.424 443.688 361.982L464.318 368.841C414.246 334.171 367.718 293.945 327.585 248.032C322.39 242.099 295.512 210.152 295.033 205.231C294.816 202.96 295.192 201.353 297.42 200.369C299.518 199.761 304.914 202.309 307.186 203.336C329.089 213.306 351.355 230.756 373.664 241.029L426.717 267.553C388.812 238.96 349.923 211.526 313.189 181.414C261.801 139.278 211.078 92.0335 169.237 40.333C163.812 33.6334 146.698 13.7677 144.252 7.34277C143.326 4.89747 142.66 3.97075 145.206 1.93066ZM855.045 533.883C874.967 529.368 871.032 495.712 845.858 501.5C827.181 505.798 833.098 538.86 855.045 533.883Z" fill="#1A5CF9"/>
</svg>
