<svg width="974" height="1206" viewBox="0 0 974 1206" fill="none" xmlns="http://www.w3.org/2000/svg">
<path d="M145.206 1.20022C150.357 -2.54745 164.029 3.48625 169.946 5.6133C262.365 38.8504 379.611 107.655 462.771 161.309C543.153 213.168 683.127 307.265 690.014 411.534C691.663 436.48 683.778 460.631 684.125 483.855C684.241 491.712 688.552 504.502 697.956 504.69C705.74 504.849 745.669 472.654 757.996 466.476C803.569 443.628 875.271 445.191 909.227 487.472C912.178 491.132 918.151 503.949 918.948 504.531V504.474C920.959 505.906 955.161 512.042 962.8 514.863C966.084 516.079 975.3 518.828 973.55 522.836C972.825 524.5 945.873 532.603 940.78 534.933C911.845 548.144 898.608 577.937 879.481 602.405C847.161 643.76 811.729 682.061 766.04 708.888C721.263 872.628 571.48 974.741 435.268 1059.59C364.941 1103.39 288.421 1150 215.013 1188.03C205.58 1192.9 193.716 1199.73 184.037 1203.35C151.312 1215.59 182.865 1181.95 190.157 1173.28C256.477 1094.44 340.896 1028.48 420.931 964.207C418.211 962.919 413.769 966.291 411.28 967.579C381.839 982.932 348.303 1007.67 318.731 1019.7C299.374 1027.57 308.691 1013.51 315.36 1004.77C333.025 981.614 361.122 954.817 382.562 934.516C412.93 905.75 446.538 880.283 475.922 850.648C456 857.42 436.642 872.599 416.995 879.24C413.48 880.427 408.951 882.974 406.578 878.677C405.117 873.612 427.932 836.497 431.824 828.973C443.268 806.863 474.055 749.591 473.129 726.917C472.289 706.385 443.399 696.531 427.094 690.396C352.571 662.368 297.926 673.915 222.478 687.589C158.922 699.107 92.6602 717.367 29.1621 725.76C24.1564 726.425 -7.57074 732.155 2.85937 719.712C5.44907 716.615 28.67 705.864 34.1533 703.26C85.7591 678.719 144.512 660.443 193.34 630.954C206.52 622.996 231.317 609.669 226.109 591.886C221.885 577.474 172.942 537.683 159.11 525.773C117.227 489.715 71.9863 456.636 31.752 418.74C25.8058 413.14 7.63383 396.341 5.44922 390.018C2.77299 382.262 16.5882 389.568 19.2656 390.712C69.9312 412.301 121.465 441.544 171.581 465.55C236.497 496.631 320.236 542.225 388.002 561.644C417.01 569.949 461.686 573.755 466.851 534.122C469.787 511.535 444.136 458.518 433.748 436.307C418.948 404.632 400.025 374.694 387.641 342.064C387.772 340.068 395.886 341.862 397.521 342.311C411.931 346.246 428.902 356.694 443.687 361.252L464.318 368.11C414.246 333.441 367.718 293.214 327.585 247.302C322.39 241.368 295.512 209.422 295.033 204.501C294.816 202.229 295.192 200.623 297.42 199.639C299.518 199.031 304.914 201.578 307.186 202.605C329.089 212.575 351.355 230.025 373.664 240.299L426.717 266.822C388.812 238.23 349.923 210.795 313.189 180.684C261.801 138.548 211.078 91.303 169.237 39.6026C163.812 32.903 146.698 13.0373 144.252 6.61233C143.326 4.16702 142.66 3.24031 145.206 1.20022ZM855.045 533.152C874.967 528.638 871.032 494.982 845.858 500.77C827.181 505.067 833.098 538.13 855.045 533.152Z" fill="#007AFF"/>
</svg>
